<mxfile host="app.diagrams.net" modified="2021-06-21T11:01:35.161Z" agent="5.0 (Windows NT 10.0; Win64; x64) AppleWebKit/537.36 (KHTML, like Gecko) Chrome/91.0.4472.106 Safari/537.36" etag="ft5oxO18uW7uAxbtPB9f" version="14.8.0" type="github">
  <diagram id="4vUjLB9Ad1RBtI8t2v-0" name="Archi_SCSMagasin">
    <mxGraphModel dx="806" dy="490" grid="1" gridSize="10" guides="1" tooltips="1" connect="1" arrows="1" fold="1" page="1" pageScale="1" pageWidth="827" pageHeight="1169" math="0" shadow="0">
      <root>
        <mxCell id="0" />
        <mxCell id="1" parent="0" />
        <mxCell id="c2h8HfMAMuBn9IAvRZB6-1" value="" style="verticalLabelPosition=bottom;aspect=fixed;html=1;verticalAlign=top;strokeColor=none;align=center;outlineConnect=0;shape=mxgraph.citrix.laptop_2;" vertex="1" parent="1">
          <mxGeometry x="180" y="290" width="93.87" height="70" as="geometry" />
        </mxCell>
        <mxCell id="c2h8HfMAMuBn9IAvRZB6-2" value="" style="shape=image;html=1;verticalAlign=top;verticalLabelPosition=bottom;labelBackgroundColor=#ffffff;imageAspect=0;aspect=fixed;image=https://cdn4.iconfinder.com/data/icons/logos-and-brands/512/21_Angular_logo_logos-128.png" vertex="1" parent="1">
          <mxGeometry x="180" y="30" width="90" height="90" as="geometry" />
        </mxCell>
        <mxCell id="c2h8HfMAMuBn9IAvRZB6-3" value="" style="dashed=0;outlineConnect=0;html=1;align=center;labelPosition=center;verticalLabelPosition=bottom;verticalAlign=top;shape=mxgraph.weblogos.java" vertex="1" parent="1">
          <mxGeometry x="414" y="10" width="34.4" height="65" as="geometry" />
        </mxCell>
        <mxCell id="c2h8HfMAMuBn9IAvRZB6-4" value="" style="aspect=fixed;html=1;points=[];align=center;image;fontSize=12;image=img/lib/mscae/Docker.svg;" vertex="1" parent="1">
          <mxGeometry x="310" y="50" width="50" height="41" as="geometry" />
        </mxCell>
        <mxCell id="c2h8HfMAMuBn9IAvRZB6-5" value="" style="aspect=fixed;html=1;points=[];align=center;image;fontSize=12;image=img/lib/mscae/Kubernetes.svg;" vertex="1" parent="1">
          <mxGeometry x="480" y="30" width="50" height="48" as="geometry" />
        </mxCell>
        <mxCell id="c2h8HfMAMuBn9IAvRZB6-6" value="" style="outlineConnect=0;dashed=0;verticalLabelPosition=bottom;verticalAlign=top;align=center;html=1;shape=mxgraph.aws3.cloud_2;fillColor=#F58534;gradientColor=none;" vertex="1" parent="1">
          <mxGeometry x="550" y="10" width="75" height="75" as="geometry" />
        </mxCell>
        <mxCell id="c2h8HfMAMuBn9IAvRZB6-7" value="" style="aspect=fixed;html=1;points=[];align=center;image;fontSize=12;image=img/lib/mscae/Azure_DevOps.svg;" vertex="1" parent="1">
          <mxGeometry x="660" y="17.5" width="50" height="50" as="geometry" />
        </mxCell>
        <mxCell id="c2h8HfMAMuBn9IAvRZB6-8" value="" style="aspect=fixed;html=1;points=[];align=center;image;fontSize=12;image=img/lib/azure2/compute/Azure_Spring_Cloud.svg;" vertex="1" parent="1">
          <mxGeometry x="730" y="17.5" width="68" height="64" as="geometry" />
        </mxCell>
        <mxCell id="c2h8HfMAMuBn9IAvRZB6-9" value="" style="aspect=fixed;html=1;points=[];align=center;image;fontSize=12;image=img/lib/azure2/databases/SQL_Database.svg;" vertex="1" parent="1">
          <mxGeometry x="120" y="17.5" width="48" height="64" as="geometry" />
        </mxCell>
      </root>
    </mxGraphModel>
  </diagram>
</mxfile>
